<svg class="ldi-tq31hh" width="200px"  height="200px"  xmlns="http://www.w3.org/2000/svg" xmlns:xlink="http://www.w3.org/1999/xlink" viewBox="0 0 100 100" preserveAspectRatio="xMidYMid" style="background: none;"><!--?xml version="1.0" encoding="utf-8"?--><!--Generator: Adobe Illustrator 21.0.0, SVG Export Plug-In . SVG Version: 6.00 Build 0)--><svg version="1.1" id="Layer_1" xmlns="http://www.w3.org/2000/svg" xmlns:xlink="http://www.w3.org/1999/xlink" x="0px" y="0px" viewBox="0 0 100 100" style="transform-origin: 50px 50px 0px;" xml:space="preserve"><g style="transform-origin: 50px 50px 0px;"><g style="transform-origin: 50px 50px 0px; transform: scale(0.2);"><g style="transform-origin: 50px 50px 0px; animation-duration: 1s; animation-delay: -1s; animation-direction: normal;" class=""><g><style type="text/css" class="ld ld-breath" style="transform-origin: 50px 50px 0px; animation-duration: 1s; animation-delay: -1s; animation-direction: normal;">.st0,.st1,.st2,.st3{fill:none;stroke:#e0e0e0;stroke-width:6;stroke-linecap:round;stroke-miterlimit:10}.st1,.st2,.st3{stroke:#333;stroke-width:7}.st2,.st3{stroke-width:3.5}.st3{stroke-width:4.5}.st4{fill:#333}.st5{fill:#f2f2f3}.st6,.st7{fill:#e0e0e0;stroke:#333;stroke-width:3.5;stroke-linecap:round;stroke-miterlimit:10}.st7{fill:#666766}.st8{fill:#9ec4d2}.st9{fill:#f3e4c7}.st10{fill:#65503a}.st11,.st12,.st13{fill:none;stroke:#f4e6c8;stroke-width:1.6485;stroke-miterlimit:10}.st12,.st13{stroke-width:2.3025}.st13{stroke-width:2.6664}.st14{fill:#e0e0e0}.st15{opacity:.2}.st16{fill:#666766}.st17{fill:#829985}.st18{fill:#d65a62}.st19{fill:#e0e0e0;stroke:#fff;stroke-width:3.5082;stroke-linecap:round;stroke-miterlimit:10}.st20{fill:#f4e6c8}.st21{fill:#f47e5f}.st22{fill:#f7b26a}.st23{fill:#cccccb}.st24{fill:#a0c8d7}.st25{fill:#77a4bd}.st26{fill:#acbd81}.st27{fill:#849b87}.st28{fill:#fff}.st29{fill:#c33837}.st30{fill:none;stroke:#f4e6c8;stroke-width:4;stroke-linecap:round;stroke-miterlimit:10}.st31{fill:#67503b}.st32{fill:#4a3827}.st33{fill:#333;stroke:#333;stroke-width:2.8916;stroke-miterlimit:10}.st34{fill:#f5e169}.st35{fill:#e15c64}.st36,.st37{fill:none;stroke:#e0e0e0;stroke-width:7.0588;stroke-miterlimit:10}.st37{stroke:#f4e6c8;stroke-width:3.7778}.st38{fill:#e3d6ba}.st39{fill:#76a0b7}.st40,.st41,.st42{fill:none;stroke-miterlimit:10}.st40{stroke-linecap:round;stroke:#e6e6e6;stroke-width:2}.st41,.st42{stroke:#000;stroke-width:3}.st42{stroke:#fff;stroke-width:4;stroke-linecap:round}.st43{fill:#b3b4b4}.st44{fill:#e0e1e0}.st45{fill:#f7b26b}.st46,.st47,.st48,.st49{fill:none;stroke:#77a4bd;stroke-width:3.7112;stroke-linecap:round;stroke-miterlimit:10}.st47,.st48,.st49{stroke:#e15c64}.st48,.st49{stroke:#849b87}.st49{stroke:#f7b26a}.st50{fill:#d9ccb2}.st51{fill:#e6e6e6}.st52{fill:none;stroke:#f4e6c8;stroke-width:3.0508;stroke-miterlimit:10}.st53{opacity:.3;fill:#fff}.st54,.st55{fill:none;stroke:#e15c64;stroke-width:14;stroke-linecap:round;stroke-miterlimit:10}.st55{stroke:#f5e169;stroke-width:3.8671}.st56{fill:#8c6339}.st57{fill:#754d25}.st58{fill:none;stroke:#fff;stroke-width:1.8653;stroke-linecap:round;stroke-miterlimit:10}.st59{opacity:.4;fill:#fff}.st60,.st61,.st62{stroke-miterlimit:10}.st60{opacity:.5;stroke-linecap:round;fill:#f47e5f;stroke:#fff;stroke-width:1.5}.st61,.st62{fill:#e0e0e0;stroke:#333;stroke-width:2.8916}.st62{opacity:.5;fill:#f47e5f;stroke:#fff;stroke-width:9.2306;stroke-linecap:round}.st63,.st64,.st65{fill:#333;stroke:#333;stroke-width:2.7189;stroke-miterlimit:10}.st64,.st65{fill:#e0e0e0}.st65{opacity:.5;fill:#f47e5f;stroke:#fff;stroke-width:1.6309;stroke-linecap:round}.st66{fill:#5f3916}.st67,.st68{fill:none;stroke:#f4e6c8;stroke-width:6.9565;stroke-linecap:round;stroke-miterlimit:10}.st68{stroke-width:2.6877}.st69{fill:#7d429a}.st70{opacity:.5}.st71{fill:#e0c3c5}.st72{opacity:.5;fill:#f4e6c8}.st73{fill:#e15c64;stroke:#f4e6c8;stroke-width:4.4485;stroke-miterlimit:10}.st74{fill:#d2d2d1}.st75,.st76,.st77{fill:none;stroke:#849b87;stroke-width:2.825;stroke-miterlimit:10}.st76,.st77{stroke:#fff;stroke-width:2}.st77{stroke:#c7c7c6;stroke-width:2.037;stroke-linecap:round}.st78{fill:#c7c7c6}.st79,.st80{fill:#e0e0e0;stroke:#fff;stroke-width:2.037;stroke-linecap:round;stroke-miterlimit:10}.st80{fill:#acbd81;stroke-width:2}.st81,.st82,.st83{fill:none;stroke:#333;stroke-width:4;stroke-miterlimit:10}.st82,.st83{stroke-width:3.5252}.st83{stroke:#fff;stroke-linecap:round}.st84{fill:#c33938}.st85{fill:#a0c8d7;stroke:#fff;stroke-width:3.2415;stroke-linecap:round}.st85,.st86,.st87{stroke-miterlimit:10}.st86{stroke-linecap:round;fill:#f7b26a;stroke:#fff;stroke-width:2}.st87{fill:none;stroke:#849b87;stroke-width:4.5679}.st88{fill:#f7b26a;stroke:#f47e5f;stroke-width:2;stroke-linecap:round}.st88,.st89,.st90{stroke-miterlimit:10}.st89{stroke:#fff;stroke-width:2;stroke-linecap:round;fill:none}.st90{fill:#e0e0e0}.st90,.st91,.st92{stroke:#333;stroke-width:3}.st91{stroke-linecap:round;stroke-miterlimit:10;fill:#e0e0e0}.st92{fill:#f7b26a}.st92,.st93,.st94{stroke-miterlimit:10}.st93{fill:#fff;stroke-width:3;stroke-linecap:round;stroke:#333}.st94{stroke:#e15c64}.st94,.st95,.st96{fill:none;stroke-width:2;stroke-linecap:round}.st95{stroke-miterlimit:10;stroke:#77a4bd}.st96{stroke:#f5e169}.st96,.st97,.st98{stroke-miterlimit:10}.st97{stroke-linecap:round;fill:none;stroke:#849b87;stroke-width:2}.st98{fill:#f7b26a;stroke:#333;stroke-width:3}.st100,.st98,.st99{stroke-linecap:round}.st99{stroke-width:3;stroke-miterlimit:10;fill:#e15c64;stroke:#333}.st100{fill:none;stroke:#acbd81}.st100,.st101,.st102{stroke-width:2;stroke-miterlimit:10}.st101{stroke-linecap:round;fill:none;stroke:#a0c8d7}.st102{fill:#e0e0e0;stroke:#b3b4b4}.st103{fill:#f0af6b}.st104{opacity:.3}.st105{fill:none;stroke:#fff;stroke-width:.5;stroke-linecap:round;stroke-miterlimit:10}.st106{opacity:.3}.st106,.st107{fill:#666}.st108{opacity:.5;fill:#b3b4b4}.st109{stroke-width:3.3387;stroke-miterlimit:10}.st109,.st110,.st111{fill:none;stroke:#fff;stroke-linecap:round}.st110{stroke-miterlimit:10;stroke-width:3}.st111{stroke-width:4.1084}.st111,.st112,.st113{stroke-miterlimit:10}.st112{stroke-linecap:round;fill:none;stroke:#fff;stroke-width:2.9508}.st113{fill:#f4e6c8;stroke:#333;stroke-width:3.5}.st114,.st115,.st116,.st117,.st118,.st119,.st120,.st121{fill:none;stroke:#333;stroke-width:3.5;stroke-miterlimit:10}.st115,.st116,.st117,.st118,.st119,.st120,.st121{fill:#e15c64}.st116,.st117,.st118,.st119,.st120,.st121{fill:#fff}.st117,.st118,.st119,.st120,.st121{fill:#f7b26a}.st118,.st119,.st120,.st121{fill:#acbd81;stroke-linecap:round}.st119,.st120,.st121{fill:#f4e6c8}.st120,.st121{fill:#e15c64}.st121{fill:#feffff}.st122{fill:#999}.st123{fill:#baccda}</style><g style="transform-origin: 50px 50px 0px;"><g><g class="ld ld-breath" style="transform-origin: 50px 50px 0px; animation-duration: 1s; animation-delay: -0.97619s; animation-direction: normal;"><path class="st21" d="M20,46.4c0-16.6,13.4-30,30-30s30,13.4,30,30c0,8.2-3.3,15.5-8.5,21l7.1,7.1c0,0,11.5-12.9,11.5-28 c0-22.1-17.9-40-40-40s-40,17.9-40,40c0,22.1,17.9,40,40,40v-10C33.4,76.4,20,62.9,20,46.4z" fill="rgb(244, 126, 95)" style="fill: rgb(244, 126, 95);"></path></g><g class="ld ld-breath" style="transform-origin: 50px 50px 0px; animation-duration: 1s; animation-delay: -0.952381s; animation-direction: normal;"><path class="st22" d="M50,16.4c-16.6,0-30,13.4-30,30s13.4,30,30,30V64.7c-0.3,0.1-0.6,0.2-1,0.2c-1.6,0-3-1.8-3-4s1.3-4,2.9-4 c0.4,0,0.7,0.1,1,0.3V45.9l7,7l1.5,1.5l1.7,1.7l1.5,1.5l2.2,2.2c0.2,0,0.3-0.1,0.5-0.1c1.6,0,3,1.7,3.2,3.8l3.8,3.8 c5.3-5.4,8.5-12.8,8.5-21C80,29.8,66.6,16.4,50,16.4z" fill="rgb(247, 178, 106)" style="fill: rgb(247, 178, 106);"></path></g><g class="ld ld-breath" style="transform-origin: 50px 50px 0px; animation-duration: 1s; animation-delay: -0.928571s; animation-direction: normal;"><ellipse transform="matrix(0.9714 -0.2375 0.2375 0.9714 -7.6481 9.07)" class="st27" cx="33.8" cy="36.3" rx="5.8" ry="4.3" fill="rgb(132, 155, 135)" style="fill: rgb(132, 155, 135);"></ellipse></g><g class="ld ld-breath" style="transform-origin: 50px 50px 0px; animation-duration: 1s; animation-delay: -0.904762s; animation-direction: normal;"><ellipse transform="matrix(0.7406 -0.6719 0.6719 0.7406 -17.7502 54.5759)" class="st27" cx="61.8" cy="50.3" rx="2.9" ry="2.1" fill="rgb(132, 155, 135)" style="fill: rgb(132, 155, 135);"></ellipse></g><g class="ld ld-breath" style="transform-origin: 50px 50px 0px; animation-duration: 1s; animation-delay: -0.880952s; animation-direction: normal;"><ellipse transform="matrix(0.1491 -0.9888 0.9888 0.1491 4.799 88.4421)" class="st27" cx="53.8" cy="41.4" rx="3.6" ry="2.7" fill="rgb(132, 155, 135)" style="fill: rgb(132, 155, 135);"></ellipse></g><g class="ld ld-breath" style="transform-origin: 50px 50px 0px; animation-duration: 1s; animation-delay: -0.857143s; animation-direction: normal;"><ellipse transform="matrix(0.5315 -0.8471 0.8471 0.5315 -2.5049 78.7903)" class="st27" cx="70" cy="41.7" rx="2.4" ry="1.8" fill="rgb(132, 155, 135)" style="fill: rgb(132, 155, 135);"></ellipse></g><g class="ld ld-breath" style="transform-origin: 50px 50px 0px; animation-duration: 1s; animation-delay: -0.833333s; animation-direction: normal;"><ellipse transform="matrix(0.9512 -0.3086 0.3086 0.9512 -5.3576 19.4318)" class="st27" cx="58.8" cy="26.7" rx="3.1" ry="2.3" fill="rgb(132, 155, 135)" style="fill: rgb(132, 155, 135);"></ellipse></g><g class="ld ld-breath" style="transform-origin: 50px 50px 0px; animation-duration: 1s; animation-delay: -0.809524s; animation-direction: normal;"><ellipse transform="matrix(0.6504 -0.7596 0.7596 0.6504 -1.0087 61.9337)" class="st27" cx="66.8" cy="32.1" rx="2.4" ry="1.8" fill="rgb(132, 155, 135)" style="fill: rgb(132, 155, 135);"></ellipse></g><g class="ld ld-breath" style="transform-origin: 50px 50px 0px; animation-duration: 1s; animation-delay: -0.785714s; animation-direction: normal;"><ellipse transform="matrix(0.9277 -0.3733 0.3733 0.9277 -14.9557 15.4379)" class="st27" cx="32.4" cy="46.3" rx="2.6" ry="1.9" fill="rgb(132, 155, 135)" style="fill: rgb(132, 155, 135);"></ellipse></g><g class="ld ld-breath" style="transform-origin: 50px 50px 0px; animation-duration: 1s; animation-delay: -0.761905s; animation-direction: normal;"><ellipse transform="matrix(0.465 -0.8853 0.8853 0.465 -20.8316 65.2415)" class="st27" cx="43.6" cy="49.9" rx="2.1" ry="2.9" fill="rgb(132, 155, 135)" style="fill: rgb(132, 155, 135);"></ellipse></g><g class="ld ld-breath" style="transform-origin: 50px 50px 0px; animation-duration: 1s; animation-delay: -0.738095s; animation-direction: normal;"><ellipse transform="matrix(0.5211 -0.8535 0.8535 0.5211 -36.7336 56.9597)" class="st27" cx="32.4" cy="61.2" rx="2.4" ry="1.8" fill="rgb(132, 155, 135)" style="fill: rgb(132, 155, 135);"></ellipse></g><g class="ld ld-breath" style="transform-origin: 50px 50px 0px; animation-duration: 1s; animation-delay: -0.714286s; animation-direction: normal;"><ellipse transform="matrix(0.2992 -0.9542 0.9542 0.2992 6.608 67.121)" class="st27" cx="49" cy="29.1" rx="4.4" ry="3.2" fill="rgb(132, 155, 135)" style="fill: rgb(132, 155, 135);"></ellipse></g><g class="ld ld-breath" style="transform-origin: 50px 50px 0px; animation-duration: 1s; animation-delay: -0.690476s; animation-direction: normal;"><path class="st35" d="M53.9,29.8l7.3,12.4c2.5-1.9,3.1-5.8,1.2-9C60.5,29.9,56.8,28.5,53.9,29.8z" fill="rgb(225, 92, 100)" style="fill: rgb(225, 92, 100);"></path></g><g class="ld ld-breath" style="transform-origin: 50px 50px 0px; animation-duration: 1s; animation-delay: -0.666667s; animation-direction: normal;"><path class="st35" d="M29.7,61l8.6-5.5c-1.4-1.7-4.2-2-6.4-0.6C29.7,56.3,28.7,59,29.7,61z" fill="rgb(225, 92, 100)" style="fill: rgb(225, 92, 100);"></path></g><g class="ld ld-breath" style="transform-origin: 50px 50px 0px; animation-duration: 1s; animation-delay: -0.642857s; animation-direction: normal;"><path class="st35" d="M71.4,50.2l-8.1,6.1c1.5,1.6,4.3,1.7,6.4,0.1C71.9,54.8,72.6,52.1,71.4,50.2z" fill="rgb(225, 92, 100)" style="fill: rgb(225, 92, 100);"></path></g><g class="ld ld-breath" style="transform-origin: 50px 50px 0px; animation-duration: 1s; animation-delay: -0.619048s; animation-direction: normal;"><path class="st35" d="M36.5,66.6l12.5,6.6c1.1-2.9-0.4-6.4-3.7-8.2C42.1,63.3,38.3,64.1,36.5,66.6z" fill="rgb(225, 92, 100)" style="fill: rgb(225, 92, 100);"></path></g><g style="transform-origin: 50px 50px 0px;"><g><g class="ld ld-breath" style="transform-origin: 50px 50px 0px; animation-duration: 1s; animation-delay: -0.595238s; animation-direction: normal;"><path class="st4" d="M38.3,32.1c-1.9,0-3.5-1.6-3.5-3.5s1.6-3.5,3.5-3.5s3.5,1.6,3.5,3.5S40.2,32.1,38.3,32.1z M38.3,27.1 c-0.8,0-1.5,0.7-1.5,1.5s0.7,1.5,1.5,1.5s1.5-0.7,1.5-1.5S39.1,27.1,38.3,27.1z" fill="rgb(51, 51, 51)" style="fill: rgb(51, 51, 51);"></path></g></g></g><g style="transform-origin: 50px 50px 0px;"><g><g class="ld ld-breath" style="transform-origin: 50px 50px 0px; animation-duration: 1s; animation-delay: -0.571429s; animation-direction: normal;"><path class="st4" d="M36.5,50.8c-1.9,0-3.5-1.6-3.5-3.5s1.6-3.5,3.5-3.5s3.5,1.6,3.5,3.5S38.5,50.8,36.5,50.8z M36.5,45.8 c-0.8,0-1.5,0.7-1.5,1.5s0.7,1.5,1.5,1.5s1.5-0.7,1.5-1.5S37.3,45.8,36.5,45.8z" fill="rgb(51, 51, 51)" style="fill: rgb(51, 51, 51);"></path></g></g></g><g style="transform-origin: 50px 50px 0px;"><g><g class="ld ld-breath" style="transform-origin: 50px 50px 0px; animation-duration: 1s; animation-delay: -0.547619s; animation-direction: normal;"><path class="st4" d="M74.6,42.2c-1.9,0-3.5-1.6-3.5-3.5s1.6-3.5,3.5-3.5s3.5,1.6,3.5,3.5S76.5,42.2,74.6,42.2z M74.6,37.2 c-0.8,0-1.5,0.7-1.5,1.5s0.7,1.5,1.5,1.5s1.5-0.7,1.5-1.5S75.4,37.2,74.6,37.2z" fill="rgb(51, 51, 51)" style="fill: rgb(51, 51, 51);"></path></g></g></g><g class="ld ld-breath" style="transform-origin: 50px 50px 0px; animation-duration: 1s; animation-delay: -0.52381s; animation-direction: normal;"><path class="st27" d="M49,57c-1.6,0-2.9,1.8-2.9,4s1.3,4,3,4c0.3,0,0.7-0.1,1-0.2v-7.4C49.7,57.1,49.3,57,49,57z" fill="rgb(132, 155, 135)" style="fill: rgb(132, 155, 135);"></path></g><g class="ld ld-breath" style="transform-origin: 50px 50px 0px; animation-duration: 1s; animation-delay: -0.5s; animation-direction: normal;"><path class="st27" d="M64.5,59.7c-0.2,0-0.4,0-0.5,0.1l3.7,3.7C67.4,61.4,66.1,59.8,64.5,59.7z" fill="rgb(132, 155, 135)" style="fill: rgb(132, 155, 135);"></path></g><g class="ld ld-breath" style="transform-origin: 50px 50px 0px; animation-duration: 1s; animation-delay: -0.47619s; animation-direction: normal;"><path class="st4" d="M58.8,54.4c0.8,0,1.5,0.7,1.5,1.5c0,0.1,0,0.2,0,0.2l1.5,1.5c0.3-0.5,0.5-1.1,0.5-1.8c0-1.9-1.6-3.5-3.5-3.5 c-0.6,0-1.2,0.2-1.8,0.5l1.5,1.5C58.6,54.4,58.7,54.4,58.8,54.4z" fill="rgb(51, 51, 51)" style="fill: rgb(51, 51, 51);"></path></g></g></g><g style="transform-origin: 50px 50px 0px;"><g><g class="ld ld-breath" style="transform-origin: 50px 50px 0px; animation-duration: 1s; animation-delay: -0.452381s; animation-direction: normal;"><path class="st21" d="M74.5,74.6l-3.8-3.8l-3.7-3.7l-2.2-2.2l-1.5-1.5l-1.7-1.7L60,60.1l-7-7v11.4v7.4v11.7v10c0.7,0,1.4,0,2.1-0.1 c0.2,0,0.4,0,0.6,0c0.5,0,1-0.1,1.5-0.1c0.2,0,0.4-0.1,0.6-0.1c0.5-0.1,1-0.1,1.4-0.2c0.2,0,0.4-0.1,0.5-0.1c0.5-0.1,1-0.2,1.4-0.3 c0.2,0,0.3-0.1,0.5-0.1c0.5-0.1,1-0.2,1.5-0.3c0.1,0,0.2-0.1,0.4-0.1c0.5-0.1,1-0.3,1.5-0.4c0.1,0,0.2-0.1,0.3-0.1 c0.5-0.2,1.1-0.3,1.6-0.5c0.1,0,0.1-0.1,0.2-0.1c0.5-0.2,1.1-0.4,1.6-0.6c0,0,0.1,0,0.1-0.1c0.6-0.2,1.1-0.5,1.6-0.8 c0,0,0.1,0,0.1,0c0.6-0.3,1.1-0.6,1.7-0.9c0,0,0,0,0,0c3.4-1.9,6.5-4.3,9.2-7L74.5,74.6z" fill="rgb(244, 126, 95)" style="fill: rgb(244, 126, 95);"></path></g><g class="ld ld-breath" style="transform-origin: 50px 50px 0px; animation-duration: 1s; animation-delay: -0.428571s; animation-direction: normal;"><path class="st22" d="M70.6,70.8l-3.7-3.7l-2.2-2.2l-1.5-1.5l-1.7-1.7L60,60.1l-7-7v11.4v7.4v11.7c8.4,0,16-3.5,21.5-9L70.6,70.8z" fill="rgb(247, 178, 106)" style="fill: rgb(247, 178, 106);"></path></g><g class="ld ld-breath" style="transform-origin: 50px 50px 0px; animation-duration: 1s; animation-delay: -0.404762s; animation-direction: normal;"><path class="st27" d="M54.9,68.2c0-1.7-0.8-3.1-1.9-3.7v7.4C54.1,71.4,55,69.9,54.9,68.2z" fill="rgb(132, 155, 135)" style="fill: rgb(132, 155, 135);"></path></g><g class="ld ld-breath" style="transform-origin: 50px 50px 0px; animation-duration: 1s; animation-delay: -0.380952s; animation-direction: normal;"><path class="st27" d="M64.2,71.3c0,2.4,1.4,4.4,3.2,4.4c1.8,0,3.3-1.9,3.3-4.3c0-0.2,0-0.4,0-0.7l-3.7-3.7 C65.4,67.4,64.2,69.2,64.2,71.3z" fill="rgb(132, 155, 135)" style="fill: rgb(132, 155, 135);"></path></g><g class="ld ld-breath" style="transform-origin: 50px 50px 0px; animation-duration: 1s; animation-delay: -0.357143s; animation-direction: normal;"><path class="st4" d="M58.3,63.1c0,1.9,1.6,3.5,3.5,3.5c1.3,0,2.4-0.7,3-1.7l-1.5-1.5c-0.1,0.7-0.7,1.3-1.5,1.3 c-0.8,0-1.5-0.7-1.5-1.5c0-0.7,0.6-1.4,1.3-1.5L60,60.1C59,60.7,58.3,61.8,58.3,63.1z" fill="rgb(51, 51, 51)" style="fill: rgb(51, 51, 51);"></path></g></g></g><metadata xmlns:d="https://loading.io/stock/" class="ld ld-breath" style="transform-origin: 50px 50px 0px; animation-duration: 1s; animation-delay: -0.333333s; animation-direction: normal;">
<d:name class="ld ld-breath" style="transform-origin: 50px 50px 0px; animation-duration: 1s; animation-delay: -0.309524s; animation-direction: normal;">pizza</d:name>
<d:tags class="ld ld-breath" style="transform-origin: 50px 50px 0px; animation-duration: 1s; animation-delay: -0.285714s; animation-direction: normal;">pizza,pie,pancake,food,party</d:tags>
<d:license class="ld ld-breath" style="transform-origin: 50px 50px 0px; animation-duration: 1s; animation-delay: -0.261905s; animation-direction: normal;">cc-by</d:license>
<d:slug class="ld ld-breath" style="transform-origin: 50px 50px 0px; animation-duration: 1s; animation-delay: -0.238095s; animation-direction: normal;">tq31hh</d:slug>
</metadata></g></g></g></g><style type="text/css" class="ld ld-breath" style="transform-origin: 50px 50px 0px; animation-duration: 1s; animation-delay: -0.214286s; animation-direction: normal;">@keyframes ld-breath {
  0% {
    -webkit-transform: scale(0.86);
    transform: scale(0.86);
  }
  50% {
    -webkit-transform: scale(1.06);
    transform: scale(1.06);
  }
  100% {
    -webkit-transform: scale(0.86);
    transform: scale(0.86);
  }
}
@-webkit-keyframes ld-breath {
  0% {
    -webkit-transform: scale(0.86);
    transform: scale(0.86);
  }
  50% {
    -webkit-transform: scale(1.06);
    transform: scale(1.06);
  }
  100% {
    -webkit-transform: scale(0.86);
    transform: scale(0.86);
  }
}
.ld.ld-breath {
  -webkit-animation: ld-breath 1s infinite;
  animation: ld-breath 1s infinite;
}
</style></svg></svg>